<?xml version="1.0" encoding="UTF-8"?>
<svg fill="#F61067" width="100pt" height="100pt" version="1.1" viewBox="0 0 100 100" xmlns="http://www.w3.org/2000/svg">
 <path d="m82.539 72.359c0-0.003906-0.003906-0.003906-0.003906-0.007813l0.003906-65.609c0-0.96094-0.77734-1.7422-1.7422-1.7422h-55.359-0.003906c-4.3984 0.003906-7.9766 3.582-7.9766 7.9805v2.1914 0.003906 65.617 0.003906 0.72656c0 4.3984 3.5781 7.9766 7.9805 7.9766h5.9766v3.7578c0 0.64844 0.35938 1.2422 0.93359 1.543 0.25391 0.13281 0.53125 0.19922 0.80859 0.19922 0.34766 0 0.69531-0.10547 0.99219-0.30859l3.25-2.2461 3.2539 2.2461c0.53125 0.37109 1.2266 0.41016 1.8008 0.10938s0.93359-0.89453 0.93359-1.543v-3.7578h37.414c0.96484 0 1.7422-0.77734 1.7422-1.7422 0-0.10156-0.039063-0.1875-0.058594-0.28516 0.019531-0.097656 0.058594-0.1875 0.058594-0.28516v-14.828zm-55.359-63.875h51.871v62.133h-51.871zm-6.2344 8.8945v-0.003906-4.3945c0-1.8594 1.1367-3.457 2.7461-4.1406v61.984c-1 0.22656-1.9297 0.62891-2.75 1.1875zm18.953 72.555l-1.5078-1.0391c-0.29688-0.20703-0.64453-0.3125-0.99219-0.3125-0.34766 0-0.69141 0.10547-0.99219 0.3125l-1.5078 1.0391v-5.5664h5zm39.156-14.18h-8.6641c-0.96484 0-1.7422 0.77734-1.7422 1.7422s0.77734 1.7422 1.7422 1.7422h8.6641v1.6445h-4.6367c-0.96484 0-1.7422 0.78125-1.7422 1.7422 0 0.96484 0.77734 1.7422 1.7422 1.7422h4.6367v1.6445l-35.672 0.003906v-3.3906c0-0.96484-0.78125-1.7422-1.7422-1.7422h-8.4844c-0.96484 0-1.7422 0.78125-1.7422 1.7422v3.3906h-5.9766c-2.4766 0-4.4922-2.0156-4.4922-4.4883v-2.9297c0-2.4766 2.0156-4.4922 4.4922-4.4922h53.617zm-19.25-44.293h-6.6016v-6.9297c0-0.96094-0.77734-1.7422-1.7422-1.7422-0.96484 0-1.7422 0.78125-1.7422 1.7422v6.9297h-6.5977c-0.96484 0-1.7422 0.78125-1.7422 1.7422s0.78125 1.7422 1.7422 1.7422h6.5977v10.836c0 0.96484 0.78125 1.7422 1.7422 1.7422 0.96484 0 1.7422-0.77734 1.7422-1.7422v-10.836h6.6016c0.96484 0 1.7422-0.78125 1.7422-1.7422 0.003906-0.96484-0.77734-1.7422-1.7422-1.7422zm-10.66 47.918h3.6992c0.96484 0 1.7422-0.77734 1.7422-1.7422 0-0.96484-0.77734-1.7422-1.7422-1.7422h-3.6992c-0.96484 0-1.7422 0.77734-1.7422 1.7422 0 0.96484 0.78125 1.7422 1.7422 1.7422zm7.7539 1.5039h-1.8086c-0.96484 0-1.7422 0.78125-1.7422 1.7422 0 0.96484 0.77734 1.7422 1.7422 1.7422h1.8086c0.96484 0 1.7422-0.77734 1.7422-1.7422 0.003906-0.96094-0.77734-1.7422-1.7422-1.7422zm11.758 3.4844h0.73047c0.96484 0 1.7422-0.77734 1.7422-1.7422s-0.78125-1.7422-1.7422-1.7422h-0.73047c-0.96484 0-1.7422 0.78125-1.7422 1.7422 0 0.96484 0.78125 1.7422 1.7422 1.7422zm-10.961-4.9883h0.73047c0.96484 0 1.7422-0.77734 1.7422-1.7422 0-0.96484-0.77734-1.7422-1.7422-1.7422h-0.73047c-0.96484 0-1.7422 0.77734-1.7422 1.7422 0 0.96484 0.77734 1.7422 1.7422 1.7422zm-34.168-3.668c-0.54688 0.79297-0.35156 1.8789 0.44141 2.4258 0.39453 0.27344 0.78906 0.97266 0.78906 1.9258 0 0.94922-0.39453 1.6484-0.78906 1.9219-0.78906 0.55078-0.98828 1.6367-0.4375 2.4258 0.33984 0.48828 0.88281 0.75 1.4336 0.75 0.34375 0 0.6875-0.10156 0.99219-0.30859 1.4102-0.98047 2.2891-2.8125 2.2891-4.7891s-0.87891-3.8125-2.293-4.7891c-0.79297-0.55078-1.8789-0.35547-2.4258 0.4375z"/>
</svg>
