<?xml version="1.0" encoding="UTF-8"?>
<svg fill="#2D2F33" width="100pt" height="100pt" version="1.1" viewBox="0 0 100 100" xmlns="http://www.w3.org/2000/svg">
 <g>
  <path d="m75.82 46.168l8.0195-3.6055-0.38672-0.1875c-12.227 1.4727-30.902 16.184-32.934 17.809v0.76953l35.879-17.168-1.3242-0.63281-8.8242 3.9648c-0.070312 0.03125-0.14062 0.046874-0.21484 0.046874-0.19922 0-0.38672-0.11328-0.47656-0.30859-0.11719-0.25781 0-0.56641 0.26172-0.6875z"/>
  <path d="m73.172 63.773c-1.6641 1.4531-2.9492 3.7031-2.6133 4.6211 0.042968 0.11328 0.16406 0.45703 1.0625 0.45703 0.76172 0 2.2656-0.26953 5.0938-1.5547 8.5508-3.8867 7.1797-9.707 6.707-11.086-0.26562-0.011719-0.52344-0.019532-0.77344-0.019532-4.7461 0-5.9141 2.1484-7.1523 4.4258-0.37109 0.68359-0.76562 1.375-1.2461 2.0117 1.4648-0.1875 3.793-0.67578 4.9766-1.9336 0.19922-0.21094 0.52734-0.21875 0.73828-0.023437 0.21094 0.19531 0.21875 0.52734 0.023437 0.73828-1.8906 1.9922-5.8867 2.3125-6.8164 2.3633z"/>
  <path d="m70.875 45.613c-2.5273-1.7578-5.7109-3.1836-9.2891-4.1602-2.9766 2.957-7.0703 4.7891-11.59 4.7891-4.5156 0-8.6133-1.832-11.586-4.7891-3.5781 0.97656-6.7617 2.4062-9.2891 4.1602 9.6758 4.8398 18.984 12.137 20.879 13.656 1.8945-1.5195 11.203-8.8164 20.875-13.656z"/>
  <path d="m50.52 62.113v22.504c5.3945-6.0742 18.75-7.918 20.883-8.1797l4.3164-7.5938c-1.7188 0.68359-3.1016 1.0469-4.0977 1.0469-1.3477 0-1.8516-0.62109-2.043-1.1406-0.60547-1.6641 1.3789-4.4883 3.043-5.8867 0.85547-0.71875 1.3906-1.7031 1.9609-2.75 1.332-2.4453 2.8359-5.2109 8.9102-4.9414l6.9023-12.141z"/>
  <path d="m50 45.195c8.5 0 15.414-6.9141 15.414-15.414s-6.9141-15.414-15.414-15.414-15.414 6.9141-15.414 15.414 6.9141 15.414 15.414 15.414z"/>
  <path d="m23.965 47.164c-0.070313 0-0.14453-0.015624-0.21484-0.046874l-8.8242-3.9648-1.3242 0.63281 35.879 17.168v-0.76953c-2.0273-1.625-20.711-16.336-32.934-17.809l-0.38672 0.1875 8.0195 3.6055c0.26172 0.11719 0.37891 0.42578 0.26172 0.6875-0.089844 0.19531-0.27734 0.30859-0.47656 0.30859z"/>
  <path d="m20.773 60.688c1.1875 1.2617 3.5117 1.75 4.9766 1.9336-0.48438-0.63281-0.875-1.3281-1.25-2.0117-1.3047-2.3945-2.5547-4.6562-7.9258-4.4062-0.46484 1.3867-1.8125 7.2148 6.707 11.086 2.8281 1.2852 4.332 1.5547 5.0938 1.5547 0.89844 0 1.0234-0.33984 1.0625-0.45703 0.33594-0.91797-0.94922-3.1641-2.6133-4.6211-0.92969-0.046875-4.9258-0.36719-6.8125-2.3711-0.19531-0.21094-0.1875-0.53906 0.023437-0.73828 0.21094-0.1875 0.54297-0.17969 0.73828 0.03125z"/>
  <path d="m16.508 55.172c6.0703-0.27344 7.5781 2.4961 8.9102 4.9414 0.56641 1.043 1.1055 2.0312 1.9609 2.75 1.6641 1.3984 3.6484 4.2227 3.043 5.8867-0.19141 0.51953-0.69531 1.1406-2.043 1.1406-0.99609 0-2.3789-0.35938-4.0977-1.0469l4.3164 7.5938c2.1328 0.25781 15.488 2.1016 20.883 8.1797v-22.504l-39.871-19.082z"/>
 </g>
</svg>
